<?xml version="1.0" encoding="utf-8"?>
<!-- Generator: Adobe Illustrator 16.0.0, SVG Export Plug-In . SVG Version: 6.00 Build 0)  -->
<!DOCTYPE svg PUBLIC "-//W3C//DTD SVG 1.1//EN" "http://www.w3.org/Graphics/SVG/1.1/DTD/svg11.dtd">
<svg version="1.1" id="Capa_1" xmlns="http://www.w3.org/2000/svg" xmlns:xlink="http://www.w3.org/1999/xlink" x="0px" y="0px"
	 width="210px" height="48.145px" viewBox="0 0 210 48.145" enable-background="new 0 0 210 48.145" xml:space="preserve">
<g>
	<g>
		<path fill="#737373" d="M88.246,9.951v13.063c0,3.63-1.61,5.395-5.727,5.395c-2.992,0-4.679-1.33-4.679-3.682h3.375
			c0,0.46,0.203,0.818,0.535,1.048c0.334,0.23,0.743,0.384,1.178,0.384c1.432,0,1.942-1.074,1.942-2.48v-1.814H84.82
			c-0.715,1.022-1.814,1.687-2.939,1.687c-2.812,0-4.218-1.917-4.218-6.954c0-3.221,0.484-7.004,4.32-7.004
			c0.972,0,2.173,0.46,2.837,1.892h0.052V9.951H88.246z M82.954,20.842c1.482,0,1.917-1.611,1.917-3.938
			c0-3.35-0.435-4.602-1.841-4.602c-1.56,0-1.841,1.252-1.841,4.959C81.19,19.155,81.471,20.842,82.954,20.842z"/>
		<path fill="#737373" d="M91.099,9.951h3.375v1.84h0.051c0.716-1.329,1.713-2.198,3.17-2.198c0.205,0,0.435,0.025,0.639,0.051
			v3.375c-0.358-0.025-0.74-0.052-1.099-0.052c-1.228,0-2.607,0.64-2.607,2.48v8.257h-3.528V9.951z"/>
		<path fill="#737373" d="M107.416,22.095h-0.051c-0.742,1.354-2.02,1.968-3.503,1.968c-2.197,0-3.502-1.201-3.502-3.911v-10.2
			h3.528v9.484c0,1.38,0.459,1.917,1.508,1.917c1.201,0,1.867-0.741,1.867-2.275V9.951h3.529v13.753h-3.377V22.095z"/>
		<path fill="#737373" d="M113.422,9.951h3.375v1.456h0.051c0.768-1.278,1.738-1.814,3.121-1.814c2.887,0,4.217,2.121,4.217,7.234
			s-1.33,7.235-4.217,7.235c-1.332,0-2.227-0.537-2.969-1.636h-0.051v5.777h-3.527V9.951z M118.817,21.353
			c1.533,0,1.842-1.533,1.842-4.525c0-2.991-0.309-4.524-1.842-4.524c-1.561,0-1.867,1.533-1.867,4.524
			C116.949,19.82,117.256,21.353,118.817,21.353z"/>
		<path fill="#737373" d="M130.928,9.593c4.244-0.076,5.42,2.454,5.42,7.234c0,4.704-1.381,7.235-5.42,7.235
			c-4.244,0.077-5.42-2.454-5.42-7.235C125.508,12.124,126.889,9.593,130.928,9.593z M130.928,21.659
			c1.432,0,1.891-1.405,1.891-4.832c0-3.425-0.459-4.832-1.891-4.832c-1.738,0-1.891,2.021-1.891,4.832
			C129.037,19.641,129.19,21.659,130.928,21.659z"/>
	</g>
	<g>
		<path fill="#134D88" d="M91.137,26.616h4.196v4.68h2.43v2.855h-2.43v8.844c0,1.277,0.271,1.792,1.489,1.792
			c0.332,0,0.666-0.03,0.94-0.061v2.918c-0.912,0.091-1.765,0.182-2.735,0.182c-3.283,0-3.891-1.002-3.891-4.315v-9.359H89.01
			v-2.855h2.127V26.616z"/>
		<path fill="#134D88" d="M99.827,31.296h4.014v2.187h0.06c0.851-1.579,2.035-2.612,3.768-2.612c0.242,0,0.516,0.03,0.76,0.061
			v4.011c-0.428-0.03-0.883-0.06-1.309-0.06c-1.459,0-3.098,0.759-3.098,2.947v9.815h-4.194V31.296z"/>
		<path fill="#134D88" d="M110.522,36.311v-0.396c0-3.769,2.584-5.045,5.744-5.045c4.982,0,5.924,2.067,5.924,5.015v8.6
			c0,1.52,0.094,2.218,0.52,3.16h-4.012c-0.275-0.517-0.395-1.154-0.518-1.701h-0.061c-0.973,1.701-2.158,2.127-4.164,2.127
			c-2.916,0-3.951-2.492-3.951-4.681c0-3.068,1.246-4.314,4.135-5.105l2.369-0.638c1.246-0.335,1.672-0.819,1.672-1.914
			c0-1.247-0.547-2.006-1.945-2.006c-1.277,0-1.943,0.851-1.943,2.128v0.456H110.522z M118.18,39.471
			c-0.576,0.425-1.277,0.698-1.795,0.82c-1.699,0.364-2.369,1.184-2.369,2.643c0,1.245,0.457,2.279,1.582,2.279
			c1.123,0,2.582-0.729,2.582-2.522V39.471z"/>
		<path fill="#134D88" d="M125.774,31.296h4.014v1.914h0.061c0.879-1.611,2.398-2.34,4.16-2.34c2.615,0,4.164,1.43,4.164,4.649
			v12.125h-4.193V36.37c0-1.642-0.547-2.279-1.793-2.279c-1.428,0-2.217,0.882-2.217,2.705v10.849h-4.195V31.296z"/>
		<path fill="#134D88" d="M144.643,42.295v0.549c0,1.429,0.76,2.369,2.189,2.369c1.275,0,2.125-0.638,2.125-1.944
			c0-1.063-0.697-1.549-1.518-1.854l-2.949-1.064c-2.309-0.82-3.494-2.248-3.494-4.558c0-2.704,1.701-4.923,6.018-4.923
			c3.799,0,5.59,1.702,5.59,4.649v0.668h-3.768c0-1.64-0.486-2.461-1.852-2.461c-1.064,0-1.977,0.608-1.977,1.763
			c0,0.791,0.426,1.459,1.824,1.914l2.521,0.851c2.645,0.881,3.617,2.219,3.617,4.68c0,3.434-2.553,5.137-6.078,5.137
			c-4.711,0-6.02-2.066-6.02-5.197v-0.578H144.643z"/>
		<path fill="#134D88" d="M156.582,26.616h4.193v4.68h2.432v2.855h-2.432v8.844c0,1.277,0.273,1.792,1.49,1.792
			c0.334,0,0.668-0.03,0.941-0.061v2.918c-0.912,0.091-1.764,0.182-2.734,0.182c-3.281,0-3.891-1.002-3.891-4.315v-9.359h-2.127
			v-2.855h2.127V26.616z"/>
		<path fill="#134D88" d="M171.168,30.87c5.045-0.093,6.441,2.918,6.441,8.601c0,5.592-1.641,8.6-6.441,8.6
			c-5.045,0.091-6.443-2.918-6.443-8.6C164.725,33.878,166.367,30.87,171.168,30.87z M171.168,45.213
			c1.701,0,2.248-1.672,2.248-5.742c0-4.072-0.547-5.744-2.248-5.744c-2.066,0-2.248,2.4-2.248,5.744
			C168.92,42.814,169.102,45.213,171.168,45.213z"/>
		<path fill="#134D88" d="M181.375,26.616h4.195v4.68h2.432v2.855h-2.432v8.844c0,1.277,0.271,1.792,1.488,1.792
			c0.334,0,0.668-0.03,0.943-0.061v2.918c-0.914,0.091-1.764,0.182-2.736,0.182c-3.281,0-3.891-1.002-3.891-4.315v-9.359h-2.127
			v-2.855h2.127V26.616z"/>
		<path fill="#134D88" d="M190.033,36.311v-0.396c0-3.769,2.584-5.045,5.744-5.045c4.982,0,5.926,2.067,5.926,5.015v8.6
			c0,1.52,0.094,2.218,0.518,3.16h-4.012c-0.273-0.517-0.395-1.154-0.518-1.701h-0.059c-0.975,1.701-2.16,2.127-4.164,2.127
			c-2.916,0-3.951-2.492-3.951-4.681c0-3.068,1.246-4.314,4.133-5.105l2.371-0.638c1.244-0.335,1.67-0.819,1.67-1.914
			c0-1.247-0.547-2.006-1.943-2.006c-1.277,0-1.945,0.851-1.945,2.128v0.456H190.033z M197.692,39.471
			c-0.578,0.425-1.275,0.698-1.793,0.82c-1.701,0.364-2.369,1.184-2.369,2.643c0,1.245,0.455,2.279,1.582,2.279
			c1.123,0,2.58-0.729,2.58-2.522V39.471z"/>
		<path fill="#134D88" d="M205.44,25.948h4.193v21.697h-4.193V25.948z"/>
	</g>
	<g>
		<g>
			<g>
				<path fill="#134D88" d="M10.073,33.791v-18.55h6.306v18.416c0,4.889,0.894,8.073,5.389,8.073c4.487,0,5.861-3.185,5.861-8.073
					V15.241h5.83v18.55c0,7.616-3.847,12.738-11.691,12.738C13.955,46.53,10.073,41.407,10.073,33.791z"/>
			</g>
		</g>
	</g>
	<path fill="#134D88" d="M49.565,46.947h14.358c1.83-4.998,2.679-10.307,2.491-15.926c-0.281-8.487-3.405-15.355-6.847-21.869
		l-9.414,6.961c2.146,4.505,3.788,9.522,3.788,14.835C53.942,36.727,52.085,42.157,49.565,46.947z"/>
	<path fill="#231F20" d="M46.351,31.045c0,5.927-1.902,11.405-5.104,15.902h4.116c2.804-4.655,4.445-10.083,4.445-15.902
		c0-17.079-13.895-30.973-30.974-30.973c-3.429,0-12.279,0.813-18.468,5.991l2.312,2.61c5.221-4.103,12.7-5.143,16.155-5.143
		C34.006,3.531,46.351,15.874,46.351,31.045z"/>
</g>
</svg>
